<svg width="154" height="34" viewBox="0 0 154 34" fill="none" xmlns="http://www.w3.org/2000/svg">
<g clip-path="url(#clip0_238_14332)">
<path d="M18.1581 1.19904C18.167 1.10177 18.2527 1.03004 18.3494 1.03998C20.9273 1.30494 23.4071 2.1791 25.5853 3.59198C27.7637 5.00487 29.5772 6.91541 30.8784 9.16638C30.9272 9.25086 30.8974 9.35886 30.8128 9.40696L25.514 12.4214C25.4294 12.4696 25.3221 12.4396 25.2727 12.3554C24.4846 11.0135 23.3954 9.87379 22.091 9.02773C20.7866 8.18167 19.3043 7.65353 17.7624 7.48422C17.6657 7.47361 17.5944 7.38766 17.6033 7.29039L18.1581 1.19904Z" fill="url(#paint0_linear_238_14332)"/>
<path fill-rule="evenodd" clip-rule="evenodd" d="M30.8878 25.2735C30.973 25.3814 30.9904 25.5342 30.9178 25.6612C29.2636 28.5551 26.7726 30.8796 23.7715 32.3236C20.6644 33.8186 17.168 34.2941 13.777 33.6828C10.3861 33.0714 7.27244 31.4043 4.87684 28.9172C2.48127 26.4303 0.925131 23.2494 0.428707 19.825C-0.0677194 16.4005 0.520715 12.906 2.11071 9.83599C3.70072 6.76604 6.21171 4.27618 9.28831 2.71887C12.3649 1.16157 15.8512 0.61571 19.2537 1.15857C22.5401 1.68293 25.5876 3.19735 27.9947 5.49723C28.1356 5.63186 28.1361 5.85613 27.9991 5.99475L23.8308 10.2117C22.4291 8.78915 20.4707 7.90575 18.3038 7.90575C17.9107 7.90575 17.5244 7.93483 17.147 7.99095C15.932 8.14266 14.8123 8.60314 13.8683 9.29178C11.8834 10.6732 10.5864 12.9567 10.5864 15.5399C10.5864 15.8467 10.6047 16.1493 10.6402 16.4467C9.10463 17.2045 8.0477 18.7912 8.0477 20.6258C8.0477 23.1959 10.1219 25.2794 12.6805 25.2794L12.7098 25.2793L12.7272 25.2793C12.806 25.2793 12.8844 25.2774 12.9623 25.2734C12.9635 25.2735 12.9648 25.2735 12.966 25.2735H30.8878Z" fill="url(#paint1_linear_238_14332)"/>
<path d="M15.3014 1.02452C6.83464 8.31088 9.43128 13.6534 10.6364 16.4415C10.2923 14.0127 11.9893 11.2864 12.7124 10.3492C15.8014 6.93744 21.2958 8.20159 22.9985 9.64636L23.8498 10.3492C24.1996 10.2086 28.4999 6.01629 28.4999 6.01629L27.5408 5.06095L26.3806 4.14056C22.5367 1.14167 17.6572 0.743379 15.3014 1.02452Z" fill="url(#paint2_linear_238_14332)"/>
<path d="M42.9444 25.4202C41.9273 25.4202 41.0241 25.1762 40.2347 24.6883C39.4604 24.2003 38.8532 23.5218 38.413 22.6526C37.9879 21.7682 37.7754 20.7541 37.7754 19.6105V14.8529C37.7754 13.7093 37.9879 12.6953 38.413 11.8108C38.8532 10.9264 39.468 10.2479 40.2574 9.77515C41.062 9.28721 41.988 9.04321 43.0355 9.04321H45.4492C46.4359 9.04321 47.3012 9.25667 48.0451 9.68365C48.8041 10.1106 49.3886 10.7129 49.7985 11.4906C50.2236 12.2683 50.4361 13.1603 50.4361 14.1667H48.7966C48.7966 13.0841 48.4853 12.2149 47.8629 11.5592C47.2557 10.8883 46.4511 10.5528 45.4492 10.5528H43.0355C41.9577 10.5528 41.0924 10.9493 40.4396 11.7422C39.7868 12.5199 39.4604 13.5568 39.4604 14.8529V19.6105C39.4604 20.9066 39.7792 21.9511 40.4168 22.7441C41.0544 23.5218 41.8969 23.9106 42.9444 23.9106H45.4037C46.4359 23.9106 47.2633 23.5446 47.8857 22.8127C48.5233 22.0808 48.8421 21.1201 48.8421 19.9307H50.4816C50.4816 21.0133 50.2691 21.974 49.844 22.8127C49.4189 23.6361 48.8193 24.2766 48.0451 24.734C47.2861 25.1915 46.4056 25.4202 45.4037 25.4202H42.9444ZM57.325 19.0844L51.4501 9.2262H53.2718L58.1675 17.5519L63.0635 9.2262H64.8852L59.0099 19.0844V25.2372H57.325V19.0844ZM67.0725 9.2262H68.6665L77.502 22.5611V9.2262H79.1411V25.2372H77.5472L68.7123 11.9938V25.2372H67.0725V9.2262ZM87.6674 25.4202C86.6198 25.4202 85.6937 25.1839 84.8891 24.7112C84.0844 24.2384 83.4547 23.5675 82.9993 22.6983C82.5591 21.8292 82.3391 20.8228 82.3391 19.6791V14.7843C82.3391 13.6407 82.5591 12.6343 82.9993 11.7651C83.4547 10.8959 84.0844 10.225 84.8891 9.75227C85.6937 9.27955 86.6274 9.04321 87.6902 9.04321H90.1041C91.1663 9.04321 92.1001 9.27955 92.9047 9.75227C93.7093 10.225 94.3314 10.8959 94.7721 11.7651C95.2276 12.6343 95.4553 13.6407 95.4553 14.7843V19.6791C95.4553 20.8228 95.2276 21.8292 94.7721 22.6983C94.3314 23.5522 93.7017 24.2232 92.8818 24.7112C92.0772 25.1839 91.1511 25.4202 90.1041 25.4202H87.6674ZM90.0583 23.9106C91.1663 23.9106 92.0619 23.5218 92.7451 22.7441C93.4282 21.9664 93.7697 20.9447 93.7697 19.6791V14.7843C93.7697 13.5187 93.4282 12.497 92.7451 11.7193C92.0619 10.9417 91.1663 10.5528 90.0583 10.5528H87.7354C86.6274 10.5528 85.7318 10.9417 85.0487 11.7193C84.3656 12.497 84.024 13.5187 84.024 14.7843V19.6791C84.024 20.9447 84.3579 21.9664 85.0258 22.7441C85.7089 23.5218 86.6045 23.9106 87.7131 23.9106H90.0583ZM102.726 25.4202C101.815 25.4202 101.01 25.2296 100.312 24.8484C99.6133 24.4519 99.0669 23.903 98.6726 23.2015C98.2928 22.4849 98.1033 21.6615 98.1033 20.7313H99.7424C99.7424 21.6767 100.016 22.4467 100.562 23.0414C101.124 23.6209 101.86 23.9106 102.771 23.9106H105.298C106.195 23.9106 106.915 23.7124 107.462 23.3159C108.009 22.9042 108.282 22.3705 108.282 21.7148V20.2509C108.282 19.7325 108.077 19.2903 107.667 18.9243C107.272 18.5583 106.726 18.322 106.027 18.2152L101.929 17.5291C100.775 17.3308 99.8792 16.9191 99.2418 16.2939C98.6039 15.6688 98.2852 14.8834 98.2852 13.938V12.7029C98.2852 11.5897 98.6949 10.7053 99.5147 10.0496C100.35 9.3787 101.45 9.04321 102.817 9.04321H105.39C106.68 9.04321 107.72 9.43966 108.509 10.2326C109.299 11.0103 109.694 12.0396 109.694 13.3204H108.054C108.054 12.4818 107.811 11.8108 107.326 11.3076C106.84 10.8044 106.195 10.5528 105.39 10.5528H102.817C101.951 10.5528 101.261 10.7511 100.744 11.1475C100.228 11.5288 99.9702 12.0472 99.9702 12.7029V13.938C99.9702 14.4717 100.16 14.9215 100.539 15.2875C100.934 15.6535 101.473 15.8975 102.156 16.0194L106.232 16.7285C107.417 16.942 108.335 17.3537 108.988 17.9636C109.64 18.5583 109.966 19.3208 109.966 20.2509V21.7148C109.966 22.828 109.542 23.7276 108.692 24.4138C107.841 25.0847 106.726 25.4202 105.344 25.4202H102.726ZM117.799 25.4202C116.751 25.4202 115.825 25.1839 115.021 24.7112C114.216 24.2384 113.586 23.5675 113.131 22.6983C112.691 21.8292 112.471 20.8228 112.471 19.6791V14.7843C112.471 13.6407 112.691 12.6343 113.131 11.7651C113.586 10.8959 114.216 10.225 115.021 9.75227C115.825 9.27955 116.759 9.04321 117.822 9.04321H120.235C121.298 9.04321 122.232 9.27955 123.036 9.75227C123.841 10.225 124.463 10.8959 124.903 11.7651C125.359 12.6343 125.586 13.6407 125.586 14.7843V19.6791C125.586 20.8228 125.359 21.8292 124.903 22.6983C124.463 23.5522 123.833 24.2232 123.013 24.7112C122.209 25.1839 121.283 25.4202 120.235 25.4202H117.799ZM120.19 23.9106C121.298 23.9106 122.194 23.5218 122.877 22.7441C123.56 21.9664 123.901 20.9447 123.901 19.6791V14.7843C123.901 13.5187 123.56 12.497 122.877 11.7193C122.194 10.9417 121.298 10.5528 120.19 10.5528H117.867C116.759 10.5528 115.863 10.9417 115.18 11.7193C114.497 12.497 114.156 13.5187 114.156 14.7843V19.6791C114.156 20.9447 114.49 21.9664 115.157 22.7441C115.841 23.5218 116.736 23.9106 117.844 23.9106H120.19ZM128.781 9.2262H139.256V10.7358H130.466V16.5913H138.413V18.1009H130.466V25.2372H128.781V9.2262ZM145.818 10.6901H140.763V9.2262H152.558V10.6901H147.503V25.2372H145.818V10.6901Z" fill="#2A2A2A"/>
</g>
<defs>
<linearGradient id="paint0_linear_238_14332" x1="14.4601" y1="3.24861" x2="28.2179" y2="10.1554" gradientUnits="userSpaceOnUse">
<stop offset="0.00130674" stop-color="#FD754D"/>
<stop offset="0.867169" stop-color="#FFA69F"/>
<stop offset="1" stop-color="#FFA9A3"/>
</linearGradient>
<linearGradient id="paint1_linear_238_14332" x1="15.6305" y1="0.954346" x2="15.6305" y2="33.9422" gradientUnits="userSpaceOnUse">
<stop stop-color="#0C2D57"/>
<stop offset="1" stop-color="#041F42"/>
</linearGradient>
<linearGradient id="paint2_linear_238_14332" x1="29.0729" y1="8.67202" x2="10.4487" y2="7.12976" gradientUnits="userSpaceOnUse">
<stop stop-color="#FFB0B0"/>
<stop offset="0.875507" stop-color="#FC6736"/>
</linearGradient>
<clipPath id="clip0_238_14332">
<rect width="153" height="33.0124" fill="white" transform="translate(0.257324 0.949463)"/>
</clipPath>
</defs>
</svg>
