<svg width="186" height="43" viewBox="0 0 186 43" fill="none" xmlns="http://www.w3.org/2000/svg">
<path d="M50.2839 32.3317C49.0474 32.3317 47.9494 32.0139 46.9897 31.3783C46.0485 30.7428 45.3103 29.8589 44.7751 28.7267C44.2583 27.5747 44 26.2539 44 24.7643V18.5674C44 17.0777 44.2583 15.757 44.7751 14.6049C45.3103 13.4529 46.0577 12.5691 47.0174 11.9534C47.9955 11.3178 49.1212 11 50.3946 11H53.329C54.5285 11 55.5804 11.278 56.4848 11.8342C57.4075 12.3904 58.118 13.1749 58.6163 14.1878C59.1331 15.2008 59.3914 16.3627 59.3914 17.6736H57.3983C57.3983 16.2634 57.0199 15.1313 56.2633 14.2772C55.5251 13.4033 54.547 12.9663 53.329 12.9663H50.3946C49.0844 12.9663 48.0324 13.4827 47.2388 14.5156C46.4453 15.5285 46.0485 16.8791 46.0485 18.5674V24.7643C46.0485 26.4526 46.4361 27.8131 47.2112 28.8459C47.9863 29.8589 49.0105 30.3654 50.2839 30.3654H53.2736C54.5285 30.3654 55.5344 29.8887 56.291 28.9353C57.0661 27.9819 57.4536 26.7306 57.4536 25.1814H59.4468C59.4468 26.5916 59.1884 27.8429 58.6717 28.9353C58.1549 30.0078 57.426 30.842 56.4848 31.4379C55.562 32.0338 54.4916 32.3317 53.2736 32.3317H50.2839ZM67.7662 24.0791L60.6241 11.2383H62.8387L68.7904 22.0829L74.7424 11.2383H76.957L69.8145 24.0791V32.0933H67.7662V24.0791ZM79.6161 11.2383H81.5539L92.2951 28.6076V11.2383H94.2878V32.0933H92.35L81.6095 14.8433V32.0933H79.6161V11.2383ZM104.653 32.3317C103.379 32.3317 102.254 32.0238 101.275 31.4081C100.297 30.7924 99.5317 29.9185 98.9781 28.7863C98.443 27.6542 98.1754 26.3433 98.1754 24.8537V18.478C98.1754 16.9884 98.443 15.6775 98.9781 14.5453C99.5317 13.4132 100.297 12.5393 101.275 11.9236C102.254 11.3078 103.389 11 104.681 11H107.615C108.907 11 110.042 11.3078 111.02 11.9236C111.998 12.5393 112.754 13.4132 113.29 14.5453C113.844 15.6775 114.121 16.9884 114.121 18.478V24.8537C114.121 26.3433 113.844 27.6542 113.29 28.7863C112.754 29.8986 111.989 30.7725 110.992 31.4081C110.014 32.0238 108.888 32.3317 107.615 32.3317H104.653ZM107.56 30.3654C108.907 30.3654 109.995 29.8589 110.826 28.8459C111.656 27.833 112.072 26.5022 112.072 24.8537V18.478C112.072 16.8295 111.656 15.4987 110.826 14.4858C109.995 13.4728 108.907 12.9663 107.56 12.9663H104.736C103.389 12.9663 102.3 13.4728 101.47 14.4858C100.639 15.4987 100.224 16.8295 100.224 18.478V24.8537C100.224 26.5022 100.63 27.833 101.442 28.8459C102.272 29.8589 103.361 30.3654 104.709 30.3654H107.56ZM122.959 32.3317C121.852 32.3317 120.874 32.0834 120.025 31.5869C119.176 31.0705 118.511 30.3554 118.032 29.4418C117.57 28.5083 117.34 27.4357 117.34 26.2241H119.332C119.332 27.4556 119.665 28.4586 120.329 29.2332C121.012 29.988 121.907 30.3654 123.015 30.3654H126.087C127.176 30.3654 128.052 30.1071 128.717 29.5907C129.382 29.0545 129.713 28.3593 129.713 27.5052V25.5985C129.713 24.9232 129.464 24.3472 128.966 23.8705C128.486 23.3938 127.822 23.086 126.973 22.9469L121.99 22.0531C120.587 21.7949 119.499 21.2586 118.724 20.4443C117.948 19.63 117.561 18.6071 117.561 17.3757V15.7669C117.561 14.3169 118.059 13.165 119.056 12.3109C120.071 11.437 121.409 11 123.07 11H126.198C127.766 11 129.031 11.5164 129.99 12.5492C130.95 13.5622 131.43 14.9029 131.43 16.5713H129.437C129.437 15.4788 129.141 14.6049 128.551 13.9495C127.96 13.294 127.176 12.9663 126.198 12.9663H123.07C122.018 12.9663 121.178 13.2246 120.55 13.7409C119.923 14.2375 119.609 14.9128 119.609 15.7669V17.3757C119.609 18.0708 119.84 18.6568 120.301 19.1334C120.782 19.6101 121.436 19.928 122.267 20.0868L127.222 21.0104C128.662 21.2884 129.778 21.8247 130.572 22.6192C131.365 23.3938 131.762 24.3869 131.762 25.5985V27.5052C131.762 28.9552 131.245 30.127 130.212 31.0208C129.178 31.8947 127.822 32.3317 126.143 32.3317H122.959ZM141.284 32.3317C140.01 32.3317 138.884 32.0238 137.906 31.4081C136.928 30.7924 136.162 29.9185 135.609 28.7863C135.074 27.6542 134.806 26.3433 134.806 24.8537V18.478C134.806 16.9884 135.074 15.6775 135.609 14.5453C136.162 13.4132 136.928 12.5393 137.906 11.9236C138.884 11.3078 140.019 11 141.311 11H144.245C145.537 11 146.672 11.3078 147.651 11.9236C148.629 12.5393 149.385 13.4132 149.92 14.5453C150.474 15.6775 150.751 16.9884 150.751 18.478V24.8537C150.751 26.3433 150.474 27.6542 149.92 28.7863C149.385 29.8986 148.619 30.7725 147.623 31.4081C146.645 32.0238 145.519 32.3317 144.245 32.3317H141.284ZM144.19 30.3654C145.537 30.3654 146.626 29.8589 147.457 28.8459C148.287 27.833 148.702 26.5022 148.702 24.8537V18.478C148.702 16.8295 148.287 15.4987 147.457 14.4858C146.626 13.4728 145.537 12.9663 144.19 12.9663H141.366C140.019 12.9663 138.931 13.4728 138.1 14.4858C137.27 15.4987 136.854 16.8295 136.854 18.478V24.8537C136.854 26.5022 137.26 27.833 138.072 28.8459C138.903 29.8589 139.992 30.3654 141.339 30.3654H144.19ZM154.635 11.2383H167.369V13.2047H156.683V20.8316H166.344V22.798H156.683V32.0933H154.635V11.2383ZM175.346 13.1451H169.2V11.2383H183.539V13.1451H177.394V32.0933H175.346V13.1451Z" fill="white"/>
<path d="M25.5701 0.325199C25.5808 0.19843 25.6841 0.104941 25.8006 0.117899C28.9069 0.463224 31.895 1.60253 34.5197 3.44397C37.1446 5.2854 39.3298 7.77544 40.8977 10.7092C40.9565 10.8193 40.9206 10.96 40.8186 11.0227L34.4337 14.9515C34.3318 15.0143 34.2025 14.9752 34.1429 14.8655C33.1933 13.1165 31.8809 11.6312 30.3091 10.5285C28.7373 9.42578 26.9512 8.73745 25.0932 8.51679C24.9768 8.50296 24.8909 8.39094 24.9015 8.26417L25.5701 0.325199Z" fill="url(#paint0_linear_93_129)"/>
<path fill-rule="evenodd" clip-rule="evenodd" d="M40.9089 31.7016C41.0117 31.8423 41.0327 32.0415 40.9451 32.2072C38.9519 35.9789 35.9503 39.0084 32.334 40.8904C28.5901 42.8389 24.3769 43.4586 20.2909 42.6619C16.2049 41.8651 12.453 39.6922 9.56642 36.4509C6.6798 33.2096 4.80469 29.0639 4.20651 24.6008C3.60833 20.1376 4.31738 15.5831 6.23329 11.5819C8.14921 7.58083 11.1749 4.33575 14.8821 2.30608C18.5893 0.276421 22.7902 -0.435002 26.8902 0.272521C30.8502 0.955921 34.5224 2.92969 37.4229 5.92717C37.5927 6.10264 37.5933 6.39492 37.4282 6.57559L32.4055 12.0717C30.7164 10.2175 28.3567 9.06616 25.7456 9.06616C25.2708 9.06616 24.8044 9.10423 24.3488 9.17766C22.8869 9.37564 21.5398 9.97481 20.4036 10.8706C18.0103 12.6707 16.4462 15.6479 16.4462 19.0159C16.4462 19.4157 16.4683 19.8101 16.5111 20.1977C14.6608 21.1854 13.3872 23.2533 13.3872 25.6444C13.3872 28.994 15.8865 31.7095 18.9696 31.7095L18.9917 31.7094L19.0259 31.7095C19.1222 31.7095 19.2179 31.7069 19.313 31.7016C19.3133 31.7016 19.3135 31.7016 19.3138 31.7016H40.9089Z" fill="white"/>
<path d="M22.1281 0.0978266C11.9258 9.59427 15.0547 16.5573 16.5068 20.191C16.0922 17.0256 18.1371 13.4723 19.0084 12.2509C22.7306 7.80423 29.3512 9.45182 31.4029 11.3348L32.4287 12.2509C32.8503 12.0676 38.0319 6.60368 38.0319 6.60368L36.8763 5.35857L35.4782 4.15901C30.8464 0.250502 24.9668 -0.268593 22.1281 0.0978266Z" fill="url(#paint1_linear_93_129)"/>
<defs>
<linearGradient id="paint0_linear_93_129" x1="21.114" y1="2.99644" x2="38.1911" y2="10.9227" gradientUnits="userSpaceOnUse">
<stop offset="0.00130674" stop-color="#FD754D"/>
<stop offset="0.867169" stop-color="#FFA69F"/>
<stop offset="1" stop-color="#FFA9A3"/>
</linearGradient>
<linearGradient id="paint1_linear_93_129" x1="38.7224" y1="10.0649" x2="16.2584" y2="8.34507" gradientUnits="userSpaceOnUse">
<stop stop-color="#FFB0B0"/>
<stop offset="0.875507" stop-color="#FC6736"/>
</linearGradient>
</defs>
</svg>
