<svg width="20" height="22" viewBox="0 0 20 22" fill="none" xmlns="http://www.w3.org/2000/svg">
<path d="M13.5 15.5V20H1.5V2H9V0.5H1.5C1.10218 0.5 0.720644 0.658035 0.43934 0.93934C0.158035 1.22064 0 1.60218 0 2V20C0 20.3978 0.158035 20.7794 0.43934 21.0607C0.720644 21.342 1.10218 21.5 1.5 21.5H13.5C13.8978 21.5 14.2794 21.342 14.5607 21.0607C14.842 20.7794 15 20.3978 15 20V15.5H13.5Z" fill="white"/>
<path d="M19.155 3.31998L16.68 0.844982C16.4557 0.625109 16.1541 0.501953 15.84 0.501953C15.5259 0.501953 15.2243 0.625109 15 0.844982L4.5 11.345V15.5H8.6475L19.1475 4.99998C19.3674 4.77567 19.4905 4.47409 19.4905 4.15998C19.4905 3.84588 19.3674 3.5443 19.1475 3.31998H19.155ZM8.025 14H6V11.975L13.08 4.88748L15.1125 6.91998L8.025 14ZM16.17 5.86248L14.1375 3.82998L15.84 2.12748L17.8725 4.15998L16.17 5.86248Z" fill="white"/>
</svg>
