<svg width="18" height="17" viewBox="0 0 18 17" fill="none" xmlns="http://www.w3.org/2000/svg">
<path d="M17.0631 7.45312H3.34984L11.5576 0.328125C11.6889 0.213281 11.6092 0 11.4358 0H9.36156C9.27015 0 9.18343 0.0328124 9.11546 0.0914061L0.258429 7.77656C0.177309 7.84688 0.112251 7.93381 0.0676636 8.03147C0.0230758 8.12912 0 8.23522 0 8.34258C0 8.44993 0.0230758 8.55603 0.0676636 8.65369C0.112251 8.75135 0.177309 8.83828 0.258429 8.90859L9.16702 16.6406C9.20218 16.6711 9.24437 16.6875 9.2889 16.6875H11.4334C11.6069 16.6875 11.6866 16.4719 11.5553 16.3594L3.34984 9.23438H17.0631C17.1662 9.23438 17.2506 9.15 17.2506 9.04688V7.64062C17.2506 7.5375 17.1662 7.45312 17.0631 7.45312Z" fill="black"/>
</svg>
