<svg width="20" height="22" viewBox="0 0 20 22" fill="none" xmlns="http://www.w3.org/2000/svg">
<path d="M9.73438 11C12.4958 11 14.7344 8.76142 14.7344 6C14.7344 3.23858 12.4958 1 9.73438 1C6.97295 1 4.73438 3.23858 4.73438 6C4.73438 8.76142 6.97295 11 9.73438 11Z" stroke="white" stroke-width="2"/>
<path d="M14.7347 13H15.0864C16.5993 13 17.8755 14.1266 18.0632 15.6279L18.4537 18.7519C18.6029 19.9456 17.6721 21 16.4691 21H3.00029C1.7973 21 0.866528 19.9456 1.01574 18.7519L1.40624 15.6279C1.5939 14.1266 2.87011 13 4.38308 13H4.73473" stroke="white" stroke-width="2" stroke-linecap="round" stroke-linejoin="round"/>
</svg>
