<svg width="20" height="18" viewBox="0 0 20 18" fill="none" xmlns="http://www.w3.org/2000/svg">
<path fill-rule="evenodd" clip-rule="evenodd" d="M18 0C18.5304 0 19.0391 0.210714 19.4142 0.585786C19.7893 0.960859 20 1.46957 20 2V16C20 16.5304 19.7893 17.0391 19.4142 17.4142C19.0391 17.7893 18.5304 18 18 18H2C1.46957 18 0.960859 17.7893 0.585786 17.4142C0.210714 17.0391 0 16.5304 0 16V2C0 1.46957 0.210714 0.960859 0.585786 0.585786C0.960859 0.210714 1.46957 0 2 0H18ZM18 2H2V16H18V2ZM15 12C15.2549 12.0003 15.5 12.0979 15.6854 12.2728C15.8707 12.4478 15.9822 12.687 15.9972 12.9414C16.0121 13.1958 15.9293 13.4464 15.7657 13.6418C15.6021 13.8373 15.3701 13.9629 15.117 13.993L15 14H5C4.74512 13.9997 4.49997 13.9021 4.31463 13.7272C4.1293 13.5522 4.01777 13.313 4.00283 13.0586C3.98789 12.8042 4.07067 12.5536 4.23426 12.3582C4.39786 12.1627 4.6299 12.0371 4.883 12.007L5 12H15ZM8 4C8.53043 4 9.03914 4.21071 9.41421 4.58579C9.78929 4.96086 10 5.46957 10 6V8C10 8.53043 9.78929 9.03914 9.41421 9.41421C9.03914 9.78929 8.53043 10 8 10H6C5.46957 10 4.96086 9.78929 4.58579 9.41421C4.21071 9.03914 4 8.53043 4 8V6C4 5.46957 4.21071 4.96086 4.58579 4.58579C4.96086 4.21071 5.46957 4 6 4H8ZM15 8C15.2652 8 15.5196 8.10536 15.7071 8.29289C15.8946 8.48043 16 8.73478 16 9C16 9.26522 15.8946 9.51957 15.7071 9.70711C15.5196 9.89464 15.2652 10 15 10H12C11.7348 10 11.4804 9.89464 11.2929 9.70711C11.1054 9.51957 11 9.26522 11 9C11 8.73478 11.1054 8.48043 11.2929 8.29289C11.4804 8.10536 11.7348 8 12 8H15ZM8 6H6V8H8V6ZM15 4C15.2549 4.00028 15.5 4.09788 15.6854 4.27285C15.8707 4.44782 15.9822 4.68695 15.9972 4.94139C16.0121 5.19584 15.9293 5.44638 15.7657 5.64183C15.6021 5.83729 15.3701 5.9629 15.117 5.993L15 6H12C11.7451 5.99972 11.5 5.90212 11.3146 5.72715C11.1293 5.55218 11.0178 5.31305 11.0028 5.05861C10.9879 4.80416 11.0707 4.55362 11.2343 4.35817C11.3979 4.16271 11.6299 4.0371 11.883 4.007L12 4H15Z" fill="white"/>
</svg>
