<svg width="20" height="19" viewBox="0 0 20 19" fill="none" xmlns="http://www.w3.org/2000/svg">
<path fill-rule="evenodd" clip-rule="evenodd" d="M19.2 19H0.8C0.3575 19 0 18.6604 0 18.24V0.76C0 0.339624 0.3575 0 0.8 0H9.8C9.91 0 10 0.0855007 10 0.190001V1.52C10 1.6245 9.91 1.71 9.8 1.71H1.8V17.29H18.2V9.69C18.2 9.5855 18.29 9.5 18.4 9.5H19.8C19.91 9.5 20 9.5855 20 9.69V18.24C20 18.6604 19.6425 19 19.2 19ZM16.4718 2.06936L15.1668 0.829611C15.0493 0.717985 15.1193 0.52561 15.2843 0.506611L19.7693 0.00786018C19.8968 -0.00638962 20.0068 0.0957375 19.9918 0.219238L19.4668 4.47999C19.4468 4.63674 19.2443 4.70324 19.1268 4.59161L17.8168 3.34711L11.4117 9.43186C11.3342 9.50549 11.2068 9.50549 11.1293 9.43186L10.0693 8.42486C9.99175 8.35124 9.99175 8.23011 10.0693 8.15649L16.4718 2.06936Z" fill="black"/>
</svg>
